<?xml version="1.0" encoding="UTF-8" standalone="no"?>
<svg
   viewBox="0 0 109 109"
   version="1.1"
   id="svg1"
   xmlns="http://www.w3.org/2000/svg"
   xmlns:svg="http://www.w3.org/2000/svg">
  <defs
     id="defs1" />
  <!-- フォントから自動生成した下絵（塗りシルエット）です。 -->
  <!-- 実際の書き順アニメーションにするには、この輪郭をなぞって -->
  <!-- 1画ずつの<path>（stroke、fill=none）に手作業で分割してください。 -->
  <!-- fill-ruleはnonzero（TrueType/OpenTypeの輪郭の巻き方向規則に準拠）。 -->
  <!-- 手作業でstrokeを1本のpathに結合するときも、evenoddではなく -->
  <!-- Inkscapeの「パス→パスの統合(Union)」を使うと、交差点が -->
  <!-- 白く抜ける自己交差バグを避けられます。 -->
  <path
     d="M48.94365853658537 38.69056910569106 76.82284552845528 10.61642276422765C78.09008130081301 9.25170731707317 78.09008130081301 7.204634146341462 76.82284552845528 5.93739837398374C75.55560975609757 4.670162601626018 73.4110569105691 4.767642276422762 72.24130081300814 6.034878048780499L39.975528455284554 38.495609756097565V8.17943089430895C39.975528455284554 6.424796747967491 38.61081300813008 4.962601626016266 36.758699186991876 4.962601626016266C35.00406504065041 4.962601626016266 33.54186991869919 6.424796747967491 33.54186991869919 8.17943089430895V78.55975609756098C33.54186991869919 80.41186991869918 35.00406504065041 81.87406504065041 36.758699186991876 81.87406504065041C38.61081300813008 81.87406504065041 39.975528455284554 80.41186991869918 39.975528455284554 78.55975609756098V47.65869918699187C40.17048780487805 47.56121951219512 40.267967479674795 47.56121951219512 40.365447154471546 47.46373983739838L44.36211382113821 43.369593495934964L72.72869918699186 80.60682926829269C73.4110569105691 81.38666666666667 74.38585365853658 81.87406504065041 75.36065040650406 81.87406504065041C76.0430081300813 81.87406504065041 76.72536585365853 81.58162601626016 77.31024390243903 81.19170731707317C78.77243902439025 80.11943089430895 79.06487804878049 78.07235772357724 77.89512195121952 76.61016260162602Z"
     fill="#d9d0bd"
     fill-rule="nonzero"
     id="path1" />
  <circle
     id="path6"
     style="fill:#000000;stroke:#000000"
     cx="36.944374"
     cy="4.935317"
     r="0.070988104" />
  <path
     style="fill:#000000;stroke:#000000;stroke-opacity:1"
     d="m 36.662354,5.3583441 0.282019,76.0038809 v 0"
     id="K-s1" />
  <path
     style="fill:#000000;stroke:#000000;stroke-opacity:1"
     d="M 76.003881,5.7813713 C 37.790427,45.122898 37.931436,45.263907 37.931436,45.263907"
     id="K-s2" />
  <path
     style="fill:#000000;stroke:#000000;stroke-opacity:1"
     d="M 44.699871,38.918499 C 76.567917,80.516171 76.567917,80.516171 76.567917,80.516171"
     id="K-s3" />
</svg>
