<?xml version="1.0" encoding="UTF-8" standalone="no"?>
<svg
   viewBox="0 0 109 109"
   version="1.1"
   id="svg1"
   xmlns="http://www.w3.org/2000/svg"
   xmlns:svg="http://www.w3.org/2000/svg">
  <defs
     id="defs1" />
  <!-- フォントから自動生成した下絵（塗りシルエット）です。 -->
  <!-- 実際の書き順アニメーションにするには、この輪郭をなぞって -->
  <!-- 1画ずつの<path>（stroke、fill=none）に手作業で分割してください。 -->
  <!-- fill-ruleはnonzero（TrueType/OpenTypeの輪郭の巻き方向規則に準拠）。 -->
  <!-- 手作業でstrokeを1本のpathに結合するときも、evenoddではなく -->
  <!-- Inkscapeの「パス→パスの統合(Union)」を使うと、交差点が -->
  <!-- 白く抜ける自己交差バグを避けられます。 -->
  <path
     d="M67.65975609756097 37.32585365853659C62.59081300813008 37.32585365853659 57.52186991869918 41.03008130081301 54.012601626016256 45.806585365853664C51.77056910569105 40.932601626016265 47.77390243902439 37.32585365853659 42.51 37.32585365853659C38.31837398373983 37.32585365853659 34.12674796747967 39.86032520325204 30.812439024390244 43.46707317073171V40.64016260162602C30.812439024390244 38.788048780487806 29.350243902439026 37.32585365853659 27.498130081300815 37.32585365853659C25.74349593495935 37.32585365853659 24.28130081300813 38.788048780487806 24.28130081300813 40.64016260162602V78.55975609756098C24.28130081300813 80.31439024390244 25.74349593495935 81.77658536585366 27.498130081300815 81.77658536585366C27.59560975609756 81.77658536585366 27.59560975609756 81.77658536585366 27.59560975609756 81.77658536585366C27.693089430894307 81.77658536585366 27.693089430894307 81.77658536585366 27.693089430894307 81.77658536585366C29.545203252032522 81.77658536585366 30.909918699186992 80.31439024390244 30.909918699186992 78.55975609756098V57.114227642276425C30.909918699186992 51.75284552845528 37.830975609756095 43.8569918699187 42.51 43.8569918699187C47.09154471544716 43.8569918699187 49.723495934959345 50.77804878048781 49.723495934959345 55.74951219512195C49.723495934959345 56.23691056910569 49.723495934959345 56.62682926829268 49.723495934959345 57.114227642276425V78.55975609756098C49.723495934959345 80.31439024390244 51.08821138211382 81.77658536585366 52.94032520325203 81.77658536585366C52.94032520325203 81.77658536585366 52.94032520325203 81.77658536585366 52.94032520325203 81.77658536585366C53.03780487804878 81.77658536585366 53.03780487804878 81.77658536585366 53.03780487804878 81.77658536585366C54.79243902439024 81.77658536585366 56.25463414634146 80.31439024390244 56.25463414634146 78.55975609756098V56.43186991869919C56.83951219512195 51.070487804878056 63.27317073170732 43.8569918699187 67.65975609756097 43.8569918699187C72.43626016260163 43.8569918699187 74.97073170731707 51.070487804878056 74.97073170731707 56.0419512195122V78.55975609756098C74.97073170731707 80.31439024390244 76.4329268292683 81.77658536585366 78.2850406504065 81.77658536585366C80.03967479674796 81.77658536585366 81.50186991869919 80.31439024390244 81.50186991869919 78.55975609756098V56.0419512195122C81.50186991869919 46.87886178861789 76.33544715447154 37.32585365853659 67.65975609756097 37.32585365853659Z"
     fill="#d9d0bd"
     fill-rule="nonzero"
     id="path1" />
  <path
     style="fill:#000000;stroke:#000000"
     d="M 40.610608,72.760673 Z"
     id="path3" />
  <path
     id="m-s2"
     style="fill:none;stroke:#000000"
     d="m 27.355757,80.798189 c 0.02799,-12.55047 0.248128,-20.048992 0.424996,-26.509049 0.07155,-2.61316 2.713476,-6.277255 5.17284,-8.626977 2.781019,-2.657036 5.564373,-3.869188 8.50828,-4.355177 4.154741,-0.685876 7.863208,2.554108 9.628994,6.956385 4.507771,11.238316 1.800718,32.385142 1.800718,32.385142 0,0 0.02581,-17.05761 2.31346,-29.252426 2.581325,-13.76029 23.59769,-16.536195 23.343463,6.018743 l -0.263467,23.374692 v 0 M 27.496766,37.790427 c -0.282018,43.007762 -0.141009,43.007762 -0.141009,43.007762" />
  <path
     style="fill:none;stroke:#000000"
     d="M 97.296248,70.786546 Z"
     id="path5" />
</svg>
